<svg width="25" height="28" viewBox="0 0 25 28" fill="none" xmlns="http://www.w3.org/2000/svg">
<path fill-rule="evenodd" clip-rule="evenodd" d="M20.2051 3.90003C17.6651 1.36003 13.555 1.36003 11.015 3.90003L2.55505 12.36C2.16505 12.75 1.53501 12.75 1.14501 12.36C0.755015 11.97 0.755015 11.3301 1.14501 10.9401L9.59497 2.49C12.915 -0.83 18.295 -0.83 21.615 2.49C24.935 5.81 24.935 11.19 21.615 14.51L10.245 25.88C7.90499 28.22 4.105 28.22 1.755 25.88C-0.585 23.54 -0.585 19.74 1.755 17.4L1.76501 17.39L10.355 8.90003C10.355 8.90003 10.355 8.90002 10.355 8.89002C11.695 7.55002 13.865 7.45999 15.255 8.84999C16.625 10.22 16.625 12.4301 15.255 13.8001L9.24499 19.8101C8.85499 20.2001 8.22507 20.2001 7.82507 19.8101C7.43507 19.4201 7.43507 18.79 7.82507 18.4L13.845 12.39C14.425 11.8 14.425 10.85 13.845 10.26C13.275 9.70002 12.375 9.70007 11.765 10.3101L3.17504 18.8101C1.61504 20.3701 1.61504 22.91 3.17504 24.47C4.73504 26.03 7.26507 26.03 8.82507 24.47L20.2051 13.09C22.7451 10.55 22.7451 6.44003 20.2051 3.90003Z" fill="#B0B0B0"/>
</svg>
